<?xml version="1.0" encoding="UTF-8"?>
<svg id="MainLayer" xmlns="http://www.w3.org/2000/svg" viewBox="0 0 262.56 262.56">
  <defs>
    <style>
      .cls-1 {
        fill: #e54c4c;
      }

      .cls-2 {
        fill: #fff;
      }
    </style>
  </defs>
  <g id="Button">
    <circle class="cls-1" cx="131.28" cy="131.28" r="131.28"/>
    <g>
      <path class="cls-2" d="M73.44,81.3h10.56v36.24h.24c1.68-3,4.32-5.64,7.56-7.44,3.12-1.8,6.84-3,10.8-3,7.8,0,20.28,4.8,20.28,24.84v34.56h-10.56v-33.36c0-9.36-3.48-17.28-13.44-17.28-6.84,0-12.24,4.8-14.16,10.56-.6,1.44-.72,3-.72,5.04v35.04h-10.56v-85.2Z"/>
      <path class="cls-2" d="M140.04,81.3h10.56v36.24h.24c1.68-3,4.32-5.64,7.56-7.44,3.12-1.8,6.84-3,10.8-3,7.8,0,20.28,4.8,20.28,24.84v34.56h-10.56v-33.36c0-9.36-3.48-17.28-13.44-17.28-6.84,0-12.24,4.8-14.16,10.56-.6,1.44-.72,3-.72,5.04v35.04h-10.56v-85.2Z"/>
    </g>
  </g>
</svg>