<?xml version="1.0" encoding="UTF-8"?>
<svg id="MainLayer" xmlns="http://www.w3.org/2000/svg" xmlns:xlink="http://www.w3.org/1999/xlink" viewBox="0 0 444.04 228.43">
  <defs>
    <style>
      .cls-1 {
        fill: #72a7db;
        stroke: url(#linear-gradient);
        stroke-miterlimit: 10;
        stroke-width: 14px;
      }

      .cls-2 {
        fill: none;
        stroke: #fff;
        stroke-linejoin: round;
        stroke-width: 3px;
      }
    </style>
    <linearGradient id="linear-gradient" x1="0" y1="114.22" x2="444.04" y2="114.22" gradientUnits="userSpaceOnUse">
      <stop offset="0" stop-color="#467ece"/>
      <stop offset="1" stop-color="#7672ce"/>
    </linearGradient>
  </defs>
  <g id="Block">
    <ellipse class="cls-1" cx="222.02" cy="114.22" rx="215.02" ry="107.22"/>
    <g>
      <g>
        <path d="M98.1,126.3v31.39c0,1.81.35,3.2,1.05,4.17.7.96,1.96,1.77,3.76,2.41v2.46h-29.78v-2.46c1.75-.53,3-1.29,3.72-2.29.73-1,1.09-2.4,1.09-4.22v-80.51c0-1.82-.35-3.19-1.05-4.13-.7-.94-1.96-1.73-3.76-2.37v-2.46h54.89c10.88,0,19.07,1.9,24.59,5.71,3.21,2.23,5.71,5.39,7.52,9.49,1.8,4.1,2.71,8.7,2.71,13.8,0,9.79-2.86,17.07-8.57,21.84-5.71,4.78-14.46,7.16-26.24,7.16h-29.93ZM98.1,108.46h28.73c5.26,0,8.92-.58,10.98-1.76,3.01-1.7,4.51-4.83,4.51-9.4s-1.5-7.7-4.51-9.4c-2.01-1.17-5.67-1.76-10.98-1.76h-28.73v22.32Z"/>
        <path d="M245.56,123.84h-47.07v33.84c0,1.82.35,3.21,1.05,4.17.7.97,1.96,1.77,3.76,2.42v2.46h-29.78v-2.46c1.75-.53,3-1.29,3.72-2.29.73-1,1.09-2.4,1.09-4.22v-80.51c0-1.82-.35-3.19-1.05-4.13-.7-.94-1.96-1.73-3.76-2.37v-2.46h29.78v2.46c-1.8.58-3.06,1.36-3.76,2.32-.7.96-1.05,2.35-1.05,4.16v28.76h47.07v-28.76c0-1.81-.34-3.18-1.02-4.12-.68-.94-1.94-1.73-3.8-2.37v-2.46h29.78v2.46c-1.8.58-3.06,1.36-3.76,2.33-.7.97-1.05,2.36-1.05,4.17v80.43c0,1.82.35,3.21,1.05,4.17.7.97,1.96,1.77,3.76,2.41v2.46h-29.78v-2.46c1.75-.53,3-1.29,3.72-2.29.73-1,1.09-2.41,1.09-4.23v-33.91Z"/>
        <path d="M310.23,126.3v31.39c0,1.81.35,3.2,1.05,4.17.7.96,1.96,1.77,3.76,2.41v2.46h-29.78v-2.46c1.75-.53,3-1.29,3.72-2.29.73-1,1.09-2.4,1.09-4.22v-80.51c0-1.82-.35-3.19-1.05-4.13-.7-.94-1.96-1.73-3.76-2.37v-2.46h54.89c10.88,0,19.07,1.9,24.59,5.71,3.21,2.23,5.71,5.39,7.52,9.49,1.8,4.1,2.71,8.7,2.71,13.8,0,9.79-2.86,17.07-8.57,21.84-5.72,4.78-14.46,7.16-26.24,7.16h-29.93ZM310.23,108.46h28.73c5.26,0,8.92-.58,10.98-1.76,3.01-1.7,4.51-4.83,4.51-9.4s-1.5-7.7-4.51-9.4c-2.01-1.17-5.67-1.76-10.98-1.76h-28.73v22.32Z"/>
      </g>
      <g>
        <path class="cls-2" d="M98.1,126.3v31.39c0,1.81.35,3.2,1.05,4.17.7.96,1.96,1.77,3.76,2.41v2.46h-29.78v-2.46c1.75-.53,3-1.29,3.72-2.29.73-1,1.09-2.4,1.09-4.22v-80.51c0-1.82-.35-3.19-1.05-4.13-.7-.94-1.96-1.73-3.76-2.37v-2.46h54.89c10.88,0,19.07,1.9,24.59,5.71,3.21,2.23,5.71,5.39,7.52,9.49,1.8,4.1,2.71,8.7,2.71,13.8,0,9.79-2.86,17.07-8.57,21.84-5.71,4.78-14.46,7.16-26.24,7.16h-29.93ZM98.1,108.46h28.73c5.26,0,8.92-.58,10.98-1.76,3.01-1.7,4.51-4.83,4.51-9.4s-1.5-7.7-4.51-9.4c-2.01-1.17-5.67-1.76-10.98-1.76h-28.73v22.32Z"/>
        <path class="cls-2" d="M245.56,123.84h-47.07v33.84c0,1.82.35,3.21,1.05,4.17.7.97,1.96,1.77,3.76,2.42v2.46h-29.78v-2.46c1.75-.53,3-1.29,3.72-2.29.73-1,1.09-2.4,1.09-4.22v-80.51c0-1.82-.35-3.19-1.05-4.13-.7-.94-1.96-1.73-3.76-2.37v-2.46h29.78v2.46c-1.8.58-3.06,1.36-3.76,2.32-.7.96-1.05,2.35-1.05,4.16v28.76h47.07v-28.76c0-1.81-.34-3.18-1.02-4.12-.68-.94-1.94-1.73-3.8-2.37v-2.46h29.78v2.46c-1.8.58-3.06,1.36-3.76,2.33-.7.97-1.05,2.36-1.05,4.17v80.43c0,1.82.35,3.21,1.05,4.17.7.97,1.96,1.77,3.76,2.41v2.46h-29.78v-2.46c1.75-.53,3-1.29,3.72-2.29.73-1,1.09-2.41,1.09-4.23v-33.91Z"/>
        <path class="cls-2" d="M310.23,126.3v31.39c0,1.81.35,3.2,1.05,4.17.7.96,1.96,1.77,3.76,2.41v2.46h-29.78v-2.46c1.75-.53,3-1.29,3.72-2.29.73-1,1.09-2.4,1.09-4.22v-80.51c0-1.82-.35-3.19-1.05-4.13-.7-.94-1.96-1.73-3.76-2.37v-2.46h54.89c10.88,0,19.07,1.9,24.59,5.71,3.21,2.23,5.71,5.39,7.52,9.49,1.8,4.1,2.71,8.7,2.71,13.8,0,9.79-2.86,17.07-8.57,21.84-5.72,4.78-14.46,7.16-26.24,7.16h-29.93ZM310.23,108.46h28.73c5.26,0,8.92-.58,10.98-1.76,3.01-1.7,4.51-4.83,4.51-9.4s-1.5-7.7-4.51-9.4c-2.01-1.17-5.67-1.76-10.98-1.76h-28.73v22.32Z"/>
      </g>
    </g>
  </g>
</svg>