<?xml version="1.0" encoding="UTF-8"?>
<svg id="MainLayer" xmlns="http://www.w3.org/2000/svg" viewBox="0 0 216.5 217.97">
  <defs>
    <style>
      .cls-1 {
        fill: #363738;
        stroke-width: 2px;
      }

      .cls-1, .cls-2, .cls-3, .cls-4 {
        stroke: #363738;
        stroke-miterlimit: 10;
      }

      .cls-2 {
        fill: #458588;
      }

      .cls-2, .cls-3, .cls-4 {
        stroke-width: 6px;
      }

      .cls-3 {
        fill: #d79921;
      }

      .cls-4 {
        fill: none;
      }
    </style>
  </defs>
  <path class="cls-2" d="M136.19,105.65c-29.48,0-40.47-1.38-53.87,0-9.96,1.02-28.31,5.87-28.31,28.3v28.51h-20.75c-16.35,0-30.26-13.26-30.26-29.61v-47.74c0-16.35,13.91-29.61,30.26-29.61h22.24v-22.23c0-16.36,13.26-30.27,29.61-30.27h47.74c16.35,0,29.61,13.91,29.61,30.27v22.23h2.68v21.19s.53,28.96-28.95,28.96Z"/>
  <path class="cls-3" d="M213.5,85.12v47.74c0,16.35-13.26,29.61-29.61,29.61h-22.89v22.89c0,16.35-13.26,29.61-29.61,29.61h-47.74c-16.35,0-29.61-13.26-29.61-29.61v-22.89h-1.49v-28.51c0-22.43,18.35-27.28,28.31-28.3,13.4-1.38,24.39,0,53.87,0s28.95-28.96,28.95-28.96v-21.19h20.21c16.35,0,29.61,13.26,29.61,29.61Z"/>
  <line class="cls-4" x1="108.16" y1="55.63" x2="54.55" y2="55.63"/>
  <line class="cls-4" x1="162.26" y1="162.46" x2="108.65" y2="162.46"/>
  <circle class="cls-1" cx="79.61" cy="25.24" r="8.51"/>
  <circle class="cls-1" cx="138.5" cy="189.59" r="8.51"/>
</svg>