<?xml version="1.0" encoding="UTF-8"?>
<svg id="MainLayer" xmlns="http://www.w3.org/2000/svg" viewBox="0 0 262.56 262.56">
  <defs>
    <style>
      .cls-1 {
        fill: #fff;
      }

      .cls-2 {
        fill: #039be5;
      }
    </style>
  </defs>
  <circle class="cls-2" cx="131.28" cy="131.28" r="131.28"/>
  <path class="cls-1" d="M58.25,120.11c13.85-5.31,110.97-42.51,126.1-48.31,1.94-.74,4.11-.84,6.04-.09,2.4.93,4.8,3.12,3.85,8.28-1.63,8.83-19.51,92.46-22.09,104.5-.32,1.51-.92,2.97-1.87,4.19-1.58,2.06-4.42,4.09-8.68,1.39l-34.04-25.04-16.49,16c-1.16,1.13-2.56,2-4.12,2.44-.63.18-1.25.27-1.69.14l2.09-33.51,60.91-55.21c.8-.72.45-2.04-.6-2.29h-.06c-.5-.12-1.02,0-1.45.27l-77.18,48.43-35.15-11.28s-6.13-2.8.2-7.6c1.29-.98,2.73-1.72,4.24-2.3Z"/>
</svg>