<?xml version="1.0" encoding="UTF-8"?>
<svg id="MainLayer" xmlns="http://www.w3.org/2000/svg" xmlns:xlink="http://www.w3.org/1999/xlink" viewBox="0 0 444.04 228.43">
  <defs>
    <style>
      .cls-1 {
        fill: #72a7db;
        stroke: url(#linear-gradient);
        stroke-miterlimit: 10;
        stroke-width: 14px;
      }

      .cls-2 {
        fill: none;
        stroke: #fff;
        stroke-linejoin: round;
        stroke-width: 3px;
      }
    </style>
    <linearGradient id="linear-gradient" x1="0" y1="114.22" x2="444.04" y2="114.22" gradientUnits="userSpaceOnUse">
      <stop offset="0" stop-color="#467ece"/>
      <stop offset="1" stop-color="#7672ce"/>
    </linearGradient>
  </defs>
  <g id="Block">
    <ellipse class="cls-1" cx="222.02" cy="114.22" rx="215.02" ry="107.22"/>
    <g>
      <g>
        <path d="M125.23,135.56l20.43-52.06c1.2-2.99,1.8-5.21,1.8-6.68,0-2.93-1.63-4.95-4.89-6.06v-2.46h32.56v2.46c-2.01.76-3.46,1.7-4.37,2.81-.9,1.11-2.06,3.4-3.46,6.86l-29.5,72.51c-1.05,2.58-1.58,4.54-1.58,5.89,0,2.93,1.65,4.78,4.96,5.54v2.37h-33.03v-2.37c3.26-.76,4.89-2.61,4.89-5.54,0-1.35-.53-3.31-1.58-5.89l-29.5-72.51c-1.4-3.52-2.55-5.81-3.42-6.9-.88-1.08-2.35-2.01-4.4-2.77v-2.46h33.74v2.46c-3.21,1.17-4.81,3.19-4.81,6.06,0,1.29.63,3.52,1.88,6.68l20.27,52.06Z"/>
        <path d="M206.95,126.3v31.39c0,1.81.35,3.2,1.05,4.17.7.96,1.96,1.77,3.76,2.41v2.46h-29.78v-2.46c1.75-.53,3-1.29,3.72-2.29.73-1,1.09-2.4,1.09-4.22v-80.51c0-1.82-.35-3.19-1.05-4.13-.7-.94-1.96-1.73-3.76-2.37v-2.46h54.89c10.88,0,19.07,1.9,24.59,5.71,3.21,2.23,5.71,5.39,7.52,9.49,1.8,4.1,2.71,8.7,2.71,13.8,0,9.79-2.86,17.07-8.57,21.84-5.72,4.78-14.46,7.16-26.24,7.16h-29.93ZM206.95,108.46h28.73c5.26,0,8.92-.58,10.98-1.76,3.01-1.7,4.51-4.83,4.51-9.4s-1.5-7.7-4.51-9.4c-2-1.17-5.67-1.76-10.98-1.76h-28.73v22.32Z"/>
        <path d="M363.36,77.17l-10.15,22.94-1.8-1.14c0-1.93-.53-3.46-1.58-4.57-2.86-2.99-7.07-5.45-12.63-7.38s-11.21-2.9-16.92-2.9c-4.86,0-9.17.79-12.93,2.37-5.41,2.29-8.12,5.6-8.12,9.93,0,2.87,1.3,4.91,3.91,6.11,2.61,1.2,7.64,2.15,15.11,2.86l11.88,1.05c10.38.94,18.27,3.28,23.69,7.03,3.01,2.11,5.49,4.92,7.45,8.44,2.46,4.39,3.68,9.35,3.68,14.85,0,10.02-3.86,17.93-11.58,23.73-7.37,5.57-17.35,8.35-29.93,8.35s-24.94-3.13-36.77-9.4c-.8-.41-1.48-.62-2.03-.62-1,0-1.93.7-2.78,2.11l-1.88-.88,8.65-24.08,1.88.88v.7c0,1.52.5,2.81,1.5,3.87,2.51,2.58,6.84,4.82,13.01,6.72,6.17,1.9,12.26,2.86,18.27,2.86,5.31,0,10.08-.82,14.29-2.46,5.21-1.99,7.82-5.21,7.82-9.67,0-3.57-1.8-6.06-5.41-7.47-2.41-.94-6.74-1.73-13.01-2.37l-11.81-1.14c-6.37-.58-11.23-1.35-14.59-2.29-3.36-.94-6.29-2.31-8.8-4.13-3.21-2.34-5.71-5.54-7.52-9.58s-2.71-8.47-2.71-13.27c0-10.78,3.96-19.01,11.88-24.7,7.22-5.16,16.14-7.73,26.77-7.73,5.76,0,11.14.75,16.13,2.24s10.94,4.12,17.86,7.87c2.06,1.11,3.48,1.67,4.29,1.67s1.83-.64,3.08-1.93l1.8,1.14Z"/>
      </g>
      <g>
        <path class="cls-2" d="M125.23,135.56l20.43-52.06c1.2-2.99,1.8-5.21,1.8-6.68,0-2.93-1.63-4.95-4.89-6.06v-2.46h32.56v2.46c-2.01.76-3.46,1.7-4.37,2.81-.9,1.11-2.06,3.4-3.46,6.86l-29.5,72.51c-1.05,2.58-1.58,4.54-1.58,5.89,0,2.93,1.65,4.78,4.96,5.54v2.37h-33.03v-2.37c3.26-.76,4.89-2.61,4.89-5.54,0-1.35-.53-3.31-1.58-5.89l-29.5-72.51c-1.4-3.52-2.55-5.81-3.42-6.9-.88-1.08-2.35-2.01-4.4-2.77v-2.46h33.74v2.46c-3.21,1.17-4.81,3.19-4.81,6.06,0,1.29.63,3.52,1.88,6.68l20.27,52.06Z"/>
        <path class="cls-2" d="M206.95,126.3v31.39c0,1.81.35,3.2,1.05,4.17.7.96,1.96,1.77,3.76,2.41v2.46h-29.78v-2.46c1.75-.53,3-1.29,3.72-2.29.73-1,1.09-2.4,1.09-4.22v-80.51c0-1.82-.35-3.19-1.05-4.13-.7-.94-1.96-1.73-3.76-2.37v-2.46h54.89c10.88,0,19.07,1.9,24.59,5.71,3.21,2.23,5.71,5.39,7.52,9.49,1.8,4.1,2.71,8.7,2.71,13.8,0,9.79-2.86,17.07-8.57,21.84-5.72,4.78-14.46,7.16-26.24,7.16h-29.93ZM206.95,108.46h28.73c5.26,0,8.92-.58,10.98-1.76,3.01-1.7,4.51-4.83,4.51-9.4s-1.5-7.7-4.51-9.4c-2-1.17-5.67-1.76-10.98-1.76h-28.73v22.32Z"/>
        <path class="cls-2" d="M363.36,77.17l-10.15,22.94-1.8-1.14c0-1.93-.53-3.46-1.58-4.57-2.86-2.99-7.07-5.45-12.63-7.38s-11.21-2.9-16.92-2.9c-4.86,0-9.17.79-12.93,2.37-5.41,2.29-8.12,5.6-8.12,9.93,0,2.87,1.3,4.91,3.91,6.11,2.61,1.2,7.64,2.15,15.11,2.86l11.88,1.05c10.38.94,18.27,3.28,23.69,7.03,3.01,2.11,5.49,4.92,7.45,8.44,2.46,4.39,3.68,9.35,3.68,14.85,0,10.02-3.86,17.93-11.58,23.73-7.37,5.57-17.35,8.35-29.93,8.35s-24.94-3.13-36.77-9.4c-.8-.41-1.48-.62-2.03-.62-1,0-1.93.7-2.78,2.11l-1.88-.88,8.65-24.08,1.88.88v.7c0,1.52.5,2.81,1.5,3.87,2.51,2.58,6.84,4.82,13.01,6.72,6.17,1.9,12.26,2.86,18.27,2.86,5.31,0,10.08-.82,14.29-2.46,5.21-1.99,7.82-5.21,7.82-9.67,0-3.57-1.8-6.06-5.41-7.47-2.41-.94-6.74-1.73-13.01-2.37l-11.81-1.14c-6.37-.58-11.23-1.35-14.59-2.29-3.36-.94-6.29-2.31-8.8-4.13-3.21-2.34-5.71-5.54-7.52-9.58s-2.71-8.47-2.71-13.27c0-10.78,3.96-19.01,11.88-24.7,7.22-5.16,16.14-7.73,26.77-7.73,5.76,0,11.14.75,16.13,2.24s10.94,4.12,17.86,7.87c2.06,1.11,3.48,1.67,4.29,1.67s1.83-.64,3.08-1.93l1.8,1.14Z"/>
      </g>
    </g>
  </g>
</svg>